<svg xmlns="http://www.w3.org/2000/svg" viewBox="0 0 800 600" width="800" height="600">
<defs>
    <linearGradient id="sk1" x1="0" y1="0" x2="0" y2="1">
      <stop offset="0" stop-color="#0E2C46"/>
      <stop offset="1" stop-color="#1D6FA0"/>
    </linearGradient>
    <linearGradient id="sun1" x1="0" y1="0" x2="0" y2="1">
      <stop offset="0" stop-color="#57B4EC" stop-opacity="0.55"/>
      <stop offset="1" stop-color="#57B4EC" stop-opacity="0"/>
    </linearGradient>
  </defs>
  <rect width="800" height="600" fill="url(#sk1)"/>
  <circle cx="620" cy="150" r="230" fill="url(#sun1)"/>
  <circle cx="660" cy="120" r="86" fill="none" stroke="#57B4EC" stroke-opacity="0.148" stroke-width="1.5"/><circle cx="660" cy="120" r="132" fill="none" stroke="#57B4EC" stroke-opacity="0.136" stroke-width="1.5"/><circle cx="660" cy="120" r="178" fill="none" stroke="#57B4EC" stroke-opacity="0.124" stroke-width="1.5"/><circle cx="660" cy="120" r="224" fill="none" stroke="#57B4EC" stroke-opacity="0.112" stroke-width="1.5"/><circle cx="660" cy="120" r="270" fill="none" stroke="#57B4EC" stroke-opacity="0.100" stroke-width="1.5"/><circle cx="660" cy="120" r="316" fill="none" stroke="#57B4EC" stroke-opacity="0.088" stroke-width="1.5"/><circle cx="660" cy="120" r="362" fill="none" stroke="#57B4EC" stroke-opacity="0.076" stroke-width="1.5"/>
<rect y="505" width="800" height="95" fill="#F4F7FA"/>
  <rect y="505" width="800" height="3" fill="#2F9BE0" opacity="0.5"/>
    <g>
      <rect x="285" y="215" width="230" height="290" fill="#fff"/>
      <rect x="285" y="215" width="230" height="290" fill="none" stroke="#0E2C46" stroke-opacity="0.12" stroke-width="2"/>
      <rect x="305" y="235" width="34" height="30" fill="#57B4EC" fill-opacity="0.25"/><rect x="357" y="235" width="34" height="30" fill="#57B4EC" fill-opacity="0.55"/><rect x="409" y="235" width="34" height="30" fill="#57B4EC" fill-opacity="0.25"/><rect x="461" y="235" width="34" height="30" fill="#57B4EC" fill-opacity="0.55"/><rect x="305" y="280" width="34" height="30" fill="#57B4EC" fill-opacity="0.55"/><rect x="357" y="280" width="34" height="30" fill="#57B4EC" fill-opacity="0.25"/><rect x="409" y="280" width="34" height="30" fill="#57B4EC" fill-opacity="0.55"/><rect x="461" y="280" width="34" height="30" fill="#57B4EC" fill-opacity="0.25"/><rect x="305" y="325" width="34" height="30" fill="#57B4EC" fill-opacity="0.25"/><rect x="357" y="325" width="34" height="30" fill="#57B4EC" fill-opacity="0.55"/><rect x="409" y="325" width="34" height="30" fill="#57B4EC" fill-opacity="0.25"/><rect x="461" y="325" width="34" height="30" fill="#57B4EC" fill-opacity="0.55"/><rect x="305" y="370" width="34" height="30" fill="#57B4EC" fill-opacity="0.55"/><rect x="357" y="370" width="34" height="30" fill="#57B4EC" fill-opacity="0.25"/><rect x="409" y="370" width="34" height="30" fill="#57B4EC" fill-opacity="0.55"/><rect x="461" y="370" width="34" height="30" fill="#57B4EC" fill-opacity="0.25"/><rect x="305" y="415" width="34" height="30" fill="#57B4EC" fill-opacity="0.25"/><rect x="357" y="415" width="34" height="30" fill="#57B4EC" fill-opacity="0.55"/><rect x="409" y="415" width="34" height="30" fill="#57B4EC" fill-opacity="0.25"/><rect x="461" y="415" width="34" height="30" fill="#57B4EC" fill-opacity="0.55"/><rect x="305" y="460" width="34" height="30" fill="#57B4EC" fill-opacity="0.55"/><rect x="357" y="460" width="34" height="30" fill="#57B4EC" fill-opacity="0.25"/><rect x="409" y="460" width="34" height="30" fill="#57B4EC" fill-opacity="0.55"/><rect x="461" y="460" width="34" height="30" fill="#57B4EC" fill-opacity="0.25"/>
      <rect x="380" y="450" width="40" height="55" fill="#0E2C46" fill-opacity="0.8"/>
    </g>
<g transform="translate(28,28)">
    <rect width="103.60000000000001" height="30" rx="15" fill="#0B2237" fill-opacity="0.62"/>
    <circle cx="18" cy="15" r="4" fill="#E0A93F"/>
    <text x="30" y="20" font-family="Inter, sans-serif" font-size="13" font-weight="700" fill="#fff" letter-spacing="1">FOTO DEMO</text>
  </g>
</svg>